
        <svg xmlns="http://www.w3.org/2000/svg" xmlns:xlink="http://www.w3.org/1999/xlink" version="1.1" width="2823.801980014073" height="3201.7001414295764" viewBox="0 0 2823.801980014073 3201.7001414295764">
			
			<g transform="scale(10.085007071478833) translate(10, 10)">
				<defs id="SvgjsDefs1157"/><g id="SvgjsG1158" featureKey="symbolFeature-0" transform="matrix(0.9,0,0,0.9,85,-7.2)" fill="#000"><path xmlns="http://www.w3.org/2000/svg" d="M87.307,61.03c1.799-3.37,2.949-7.261,2.949-10.784c0-10.533-5.818-17.683-15.053-19.076  c2.082-2.459,3.387-5.598,3.387-9.066C78.59,14.33,72.26,8,64.482,8c-7.778,0-14.108,6.33-14.108,14.104  c0,3.468,1.305,6.606,3.387,9.066c-9.235,1.393-15.053,8.543-15.053,19.076c0,3.472,1.123,7.297,2.88,10.641H18.684  C8.381,60.887,0,69.273,0,79.572v0.171v3.306v6.054h7.626v-6.054v-3.478c0-6.099,4.96-11.059,11.059-11.059h28.82l0.882,0.946  c1.71,1.883,4.039,2.956,6.52,3.268v16.377h10.399c4.072,0,7.718-1.761,10.295-4.53c2.577,2.769,6.223,4.53,10.295,4.53  c7.778,0,14.104-6.33,14.104-14.104C100,67.701,94.415,61.75,87.307,61.03z M64.482,15.625c3.575,0,6.482,2.904,6.482,6.479  c0,3.574-2.908,6.486-6.482,6.486c-3.575,0-6.482-2.912-6.482-6.486C58,18.53,60.908,15.625,64.482,15.625z M50.229,60.255  c-2.256-2.472-3.895-6.68-3.895-10.009c0-4.386,1.4-11.744,10.783-11.744h14.73c9.383,0,10.783,7.358,10.783,11.744  c0,3.321-1.638,7.529-3.887,9.994l-3.694,4.014c-0.54,0.558-1.15,0.886-2.331,1.028c-0.752,0-1.471-0.276-2.014-0.797  c-0.357-0.342-0.644-0.745-0.789-1.11c-0.432-1.124-0.205-2.368,0.558-3.21l3.705-3.977c1.381-1.43,2.729-3.046,3.217-5.19  L69.963,49.3c-0.004,0.015-0.097,0.38-1.314,1.638l-3.787,4.066c-0.13,0.141-0.257,0.29-0.38,0.439  c-0.134-0.164-0.272-0.32-0.413-0.477l-3.805-4.088c-1.165-1.199-1.255-1.549-1.258-1.564l-7.439,1.668  c0.484,2.16,1.836,3.776,3.172,5.153l3.72,3.992c0.79,0.871,1.031,2.137,0.629,3.217c-0.156,0.417-0.421,0.797-0.771,1.124  c-0.264,0.246-0.637,0.477-0.976,0.618c-1.098,0.424-2.476,0.156-3.347-0.797L50.229,60.255z M65.305,81.478h-2.774V70.666  c0.311-0.231,0.711-0.367,0.987-0.626c0.358-0.328,0.685-0.678,0.987-1.043c0.294,0.357,0.611,0.693,0.946,1.005  c1.59,1.538,3.658,2.336,5.849,2.634c0.291,0.741,0.489,1.524,0.489,2.362C71.788,78.574,68.88,81.478,65.305,81.478z   M85.896,81.478c-3.575,0-6.482-2.904-6.482-6.479c0-3.575,2.908-6.486,6.482-6.486c3.571,0,6.479,2.912,6.479,6.486  C92.374,78.574,89.466,81.478,85.896,81.478z"/></g><g id="SvgjsG1159" featureKey="nameFeature-0" transform="matrix(5.959202237792467,0,0,5.959202237792467,-0.000004262353590339994,25.06509676242112)" fill="#000"><path d="M15.52 11.399999999999999 l-7.12 14.28 l7.12 14.32 l-1.32 0 l-6.44 -13 l-6.48 13 l-1.28 0 l7.12 -14.32 l-7.12 -14.28 l1.28 0 l6.48 12.96 l6.44 -12.96 l1.32 0 z M25.314999999999998 12.600000000000001 l-4.6 0 l0 7.88 l4.6 0 l0 1.2 l-4.6 0 l0 17.12 l4.6 0 l0 1.2 l-5.76 0 l0 -28.6 l5.76 0 l0 1.2 z M42.47 11.399999999999999 l1.16 0 l0 28.6 l-1.16 0 l0 -5.16 c-0.2 -9.16 -4.88 -17.2 -11.96 -22.04 l0 27.2 l-1.16 0 l0 -28.6 l1.16 0 c5.72 3.64 10 9.28 11.96 15.96 l0 -15.96 z"/></g><g id="SvgjsG1160" featureKey="sloganFeature-0" transform="matrix(0.9217376605594612,0,0,0.9217376605594612,21.354784692453418,278.7231382571069)" fill="#000"><path d="M18.62 5.08 l2.3 0 l-4.76 14.92 l-2.36 0 l-2.88 -8.82 l-2.8 8.82 l-2.36 0 l-5.06 -14.92 l2.24 0 l3.96 11.16 l2.8 -8.8 l-0.76 -2.36 l2.24 0 l3.76 11.16 z M26 14.02 l0 3.8 l9.2 0 l0 2.18 l-11.38 0 l0 -14.92 l10.5 0 l0 2.2 l-8.32 0 l0 4.52 q0.62 -0.36 1.38 -0.48 q0.56 -0.1 1.44 -0.1 l3.26 0 l0 2.22 l-3.26 0 q-0.82 0 -1.44 0.1 q-0.76 0.14 -1.38 0.48 z M49.16 20 l-10.46 0 l0 -14.92 l2.18 0 l0 12.74 l8.28 0 l0 2.18 z M62.22 20 l-10.46 0 l0 -14.92 l2.18 0 l0 12.74 l8.28 0 l0 2.18 z M65.26 7.18 l-1.74 -2.1 l2.82 0 l9.58 11.4 l0 -11.4 l2.2 0 l0 14.92 l-2.16 0 l-8.56 -10.26 l0 10.26 l-2.14 0 l0 -12.82 z M84.7 14.02 l0 3.8 l9.2 0 l0 2.18 l-11.38 0 l0 -14.92 l10.5 0 l0 2.2 l-8.32 0 l0 4.52 q0.62 -0.36 1.38 -0.48 q0.56 -0.1 1.44 -0.1 l3.26 0 l0 2.22 l-3.26 0 q-0.82 0 -1.44 0.1 q-0.76 0.14 -1.38 0.48 z M109 15.46 q0 1.46 -0.88 2.6 q-0.86 1.08 -2.37 1.68 t-3.41 0.6 q-1.74 0 -3.38 -0.81 t-2.76 -2.25 l1.56 -1.46 q1.94 2.34 4.58 2.34 q1.16 0 2.12 -0.28 q1.06 -0.32 1.64 -0.9 q0.66 -0.64 0.66 -1.52 q0 -1.06 -0.66 -1.6 q-0.56 -0.46 -1.66 -0.6 q-0.64 -0.08 -2.1 -0.08 q-2.68 0 -4.09 -0.98 t-1.41 -2.88 q0 -1.2 0.71 -2.28 t1.95 -1.72 q1.28 -0.68 2.84 -0.68 q1.76 0 3.18 0.54 q1.52 0.58 2.82 1.82 l-1.36 1.6 q-1.22 -0.98 -2.22 -1.37 t-2.42 -0.39 q-0.82 0 -1.53 0.34 t-1.13 0.91 t-0.42 1.21 q0 1.72 3.18 1.72 q2.54 0 4.02 0.52 q1.4 0.5 2 1.52 q0.54 0.9 0.54 2.4 z M123.8 15.46 q0 1.46 -0.88 2.6 q-0.86 1.08 -2.37 1.68 t-3.41 0.6 q-1.74 0 -3.38 -0.81 t-2.76 -2.25 l1.56 -1.46 q1.94 2.34 4.58 2.34 q1.16 0 2.12 -0.28 q1.06 -0.32 1.64 -0.9 q0.66 -0.64 0.66 -1.52 q0 -1.06 -0.66 -1.6 q-0.56 -0.46 -1.66 -0.6 q-0.64 -0.08 -2.1 -0.08 q-2.68 0 -4.09 -0.98 t-1.41 -2.88 q0 -1.2 0.71 -2.28 t1.95 -1.72 q1.28 -0.68 2.84 -0.68 q1.76 0 3.18 0.54 q1.52 0.58 2.82 1.82 l-1.36 1.6 q-1.22 -0.98 -2.22 -1.37 t-2.42 -0.39 q-0.82 0 -1.53 0.34 t-1.13 0.91 t-0.42 1.21 q0 1.72 3.18 1.72 q2.54 0 4.02 0.52 q1.4 0.5 2 1.52 q0.54 0.9 0.54 2.4 z M137.08 6.66 l-0.82 -1.84 l2.4 0 l7.18 15.18 l-2.44 0 l-0.98 -2.18 l-4.54 0 q-1.28 0 -2.3 0.24 q-0.9 0.22 -1.5 0.58 q-0.54 0.32 -0.72 0.66 l-0.38 0.7 l-2.36 0 z M138.68 15.620000000000001 l2.76 0 l-3.26 -6.3 l-3.3 7.14 q0.44 -0.38 1.34 -0.6 q1.02 -0.24 2.46 -0.24 z M159.74 7.279999999999999 l-5.26 0 l0 12.72 l-2.12 0 l0 -12.72 l-5.32 0 l0 -2.2 l12.7 0 l0 2.2 z M170.12 13.4 l0 6.6 l-2.16 0 l0 -14.92 l2.16 0 l0 6.12 q0.8 -0.4 1.9 -0.4 q0.4 0 1.94 0.18 q2.16 0.26 2.92 0.26 q1.16 0 2.02 -0.38 l0 -5.78 l2.18 0 l0 14.92 l-2.18 0 l0 -6.94 q-0.86 0.38 -2.02 0.38 q-0.76 0 -2.92 -0.26 q-1.54 -0.18 -1.94 -0.18 q-1.1 0 -1.9 0.4 z M198.38 12.440000000000001 q0 -1.6 -0.82 -2.9 q-0.78 -1.26 -2.13 -1.98 t-2.93 -0.72 q-1.64 0 -2.99 0.74 t-2.11 2.02 q-0.78 1.34 -0.78 2.98 q0 1.56 0.84 2.88 q0.8 1.24 2.15 1.97 t2.92 0.73 t2.92 -0.76 t2.13 -2.04 q0.8 -1.34 0.8 -2.92 z M200.54 12.559999999999999 q0 2.16 -1.12 3.98 q-1.08 1.74 -2.93 2.77 t-3.99 1.03 q-2.22 0 -4.08 -1.08 q-1.82 -1.04 -2.86 -2.86 q-1.08 -1.86 -1.08 -4.08 q0 -2.14 1.14 -3.94 q1.08 -1.72 2.93 -2.73 t3.97 -1.01 q2.18 0 4.04 1.06 q1.82 1.04 2.88 2.82 q1.1 1.86 1.1 4.04 z M216.68 9.74 l-5.1 6.1 l-5.06 -6.1 l0 10.26 l-2.14 0 l0 -12.82 l-1.74 -2.1 l2.82 0 l6.1 7.32 l6.18 -7.32 l2.82 0 l-1.74 2.1 l0 12.82 l-2.14 0 l0 -10.26 z M225.84 14.02 l0 3.8 l9.2 0 l0 2.18 l-11.38 0 l0 -14.92 l10.5 0 l0 2.2 l-8.32 0 l0 4.52 q0.62 -0.36 1.38 -0.48 q0.56 -0.1 1.44 -0.1 l3.26 0 l0 2.22 l-3.26 0 q-0.82 0 -1.44 0.1 q-0.76 0.14 -1.38 0.48 z"/></g>
			</g>
		</svg>
	